<?xml version="1.0" encoding="UTF-8"?>
<svg width="52px" height="37px" viewBox="0 0 52 37" version="1.1" xmlns="http://www.w3.org/2000/svg" xmlns:xlink="http://www.w3.org/1999/xlink">
    <defs></defs>
    <g id="Page-1" stroke="none" stroke-width="1" fill="none" fill-rule="evenodd">
        <g id="Artboard" transform="translate(-1704.000000, -1304.000000)" fill-rule="nonzero" stroke="#000000" fill="#FFFFFF">
            <g id="109617" transform="translate(1705.000000, 1305.000000)">
                <g id="Capa_1">
                    <path d="M33.6694189,0.579500215 C32.9882502,-0.122333405 31.854557,-0.122333405 31.1495713,0.579500215 C30.4684027,1.25762324 30.4684027,2.38624757 31.1495713,3.06278989 L43.9266434,15.7827339 L1.76405208,15.7827339 C0.781200381,15.7843146 0,16.5620221 0,17.5404793 C0,18.5189366 0.781200381,19.3219354 1.76405208,19.3219354 L43.9266434,19.3219354 L31.1495713,32.0181688 C30.4684027,32.7200024 30.4684027,33.8502075 31.1495713,34.5267498 C31.854557,35.2285834 32.989838,35.2285834 33.6694189,34.5267498 L49.4712607,18.7955602 C50.1762464,18.1174372 50.1762464,16.9888128 49.4712607,16.3122705 L33.6694189,0.579500215 Z" id="Shape"></path>
                </g>
            </g>
        </g>
    </g>
</svg>